<svg width="31" height="30" viewBox="0 0 31 30" fill="none" xmlns="http://www.w3.org/2000/svg">
<path d="M30.1463 15.0918C30.1463 6.75555 23.4301 -0.00195312 15.1463 -0.00195312C6.85883 -7.81249e-05 0.142578 6.75555 0.142578 15.0937C0.142578 22.6255 5.62883 28.8693 12.7988 30.0018V19.4549H8.99258V15.0937H12.8026V11.7655C12.8026 7.98367 15.0432 5.89492 18.4688 5.89492C20.1113 5.89492 21.827 6.1893 21.827 6.1893V9.9018H19.9351C18.0732 9.9018 17.492 11.0662 17.492 12.2605V15.0918H21.6507L20.987 19.453H17.4901V29.9999C24.6601 28.8674 30.1463 22.6237 30.1463 15.0918Z" fill="#056839"/>
</svg>
