<svg width="16" height="16" viewBox="0 0 16 16" fill="none" xmlns="http://www.w3.org/2000/svg">
<path d="M15.8325 4.92732C15.8241 4.2975 15.706 3.67395 15.4835 3.08454C15.2906 2.58739 14.9959 2.13588 14.6182 1.75887C14.2406 1.38186 13.7883 1.08764 13.2903 0.895C12.7076 0.676591 12.0919 0.558494 11.4695 0.545737C10.6682 0.509979 10.4141 0.5 8.38003 0.5C6.34593 0.5 6.08521 0.5 5.28973 0.545737C4.66764 0.558588 4.05224 0.676684 3.46971 0.895C2.97165 1.0875 2.51932 1.38168 2.14166 1.7587C1.764 2.13573 1.46934 2.58731 1.27652 3.08454C1.05731 3.66593 0.939269 4.28044 0.927505 4.90154C0.891688 5.70235 0.880859 5.95598 0.880859 7.9867C0.880859 10.0174 0.880859 10.2769 0.927505 11.0718C0.94 11.6939 1.05745 12.3076 1.27652 12.8905C1.46966 13.3876 1.76455 13.839 2.14233 14.2159C2.52011 14.5927 2.97248 14.8868 3.47054 15.0792C4.05148 15.3064 4.66699 15.433 5.29057 15.4534C6.09271 15.4892 6.34676 15.5 8.38086 15.5C10.415 15.5 10.6757 15.5 11.4712 15.4534C12.0935 15.4412 12.7092 15.3234 13.292 15.105C13.7899 14.9121 14.242 14.6178 14.6196 14.2409C14.9972 13.8639 15.292 13.4125 15.4852 12.9155C15.7043 12.3334 15.8217 11.7196 15.8342 11.0968C15.87 10.2968 15.8809 10.0432 15.8809 8.01164C15.8792 5.98093 15.8792 5.72314 15.8325 4.92732V4.92732ZM8.37503 11.8269C6.24764 11.8269 4.52424 10.1064 4.52424 7.98254C4.52424 5.85869 6.24764 4.13815 8.37503 4.13815C9.39632 4.13815 10.3758 4.54319 11.0979 5.26415C11.8201 5.98511 12.2258 6.96294 12.2258 7.98254C12.2258 9.00213 11.8201 9.97997 11.0979 10.7009C10.3758 11.4219 9.39632 11.8269 8.37503 11.8269V11.8269ZM12.3791 4.89239C12.2611 4.8925 12.1443 4.86939 12.0353 4.82438C11.9263 4.77937 11.8273 4.71334 11.7439 4.63008C11.6605 4.54681 11.5944 4.44795 11.5493 4.33914C11.5042 4.23033 11.481 4.11371 11.4811 3.99595C11.4811 3.87829 11.5044 3.76177 11.5495 3.65306C11.5946 3.54435 11.6607 3.44557 11.744 3.36237C11.8274 3.27916 11.9263 3.21316 12.0352 3.16813C12.1441 3.1231 12.2608 3.09993 12.3787 3.09993C12.4965 3.09993 12.6132 3.1231 12.7221 3.16813C12.831 3.21316 12.93 3.27916 13.0133 3.36237C13.0967 3.44557 13.1628 3.54435 13.2079 3.65306C13.253 3.76177 13.2762 3.87829 13.2762 3.99595C13.2762 4.49157 12.8747 4.89239 12.3791 4.89239Z" fill="white"/>
<path d="M8.37444 10.4793C9.75591 10.4793 10.8758 9.36127 10.8758 7.98209C10.8758 6.60291 9.75591 5.48486 8.37444 5.48486C6.99296 5.48486 5.87305 6.60291 5.87305 7.98209C5.87305 9.36127 6.99296 10.4793 8.37444 10.4793Z" fill="white"/>
</svg>
