<svg width="29" height="30" viewBox="0 0 29 30" fill="none" xmlns="http://www.w3.org/2000/svg">
<path d="M14.4547 0.600098C6.50169 0.600098 0.0546875 7.0471 0.0546875 15.0001C0.0546875 22.9531 6.50169 29.4001 14.4547 29.4001C22.4077 29.4001 28.8547 22.9531 28.8547 15.0001C28.8547 7.0471 22.4077 0.600098 14.4547 0.600098ZM10.9297 20.9686H8.01369V11.5846H10.9297V20.9686ZM9.45369 10.4326C8.53269 10.4326 7.93719 9.7801 7.93719 8.9731C7.93719 8.1496 8.55069 7.5166 9.49119 7.5166C10.4317 7.5166 11.0077 8.1496 11.0257 8.9731C11.0257 9.7801 10.4317 10.4326 9.45369 10.4326ZM21.5797 20.9686H18.6637V15.7681C18.6637 14.5576 18.2407 13.7356 17.1862 13.7356C16.3807 13.7356 15.9022 14.2921 15.6907 14.8276C15.6127 15.0181 15.5932 15.2881 15.5932 15.5566V20.9671H12.6757V14.5771C12.6757 13.4056 12.6382 12.4261 12.5992 11.5831H15.1327L15.2662 12.8866H15.3247C15.7087 12.2746 16.6492 11.3716 18.2227 11.3716C20.1412 11.3716 21.5797 12.6571 21.5797 15.4201V20.9686Z" fill="#056839"/>
</svg>
