<svg width="30" height="30" viewBox="0 0 30 30" fill="none" xmlns="http://www.w3.org/2000/svg">
<path d="M14.7633 0.600098C6.81028 0.600098 0.363281 7.0471 0.363281 15.0001C0.363281 22.9531 6.81028 29.4001 14.7633 29.4001C22.7163 29.4001 29.1633 22.9531 29.1633 15.0001C29.1633 7.0471 22.7163 0.600098 14.7633 0.600098ZM20.6208 12.3961C20.6268 12.5191 20.6283 12.6421 20.6283 12.7621C20.6283 16.5121 17.7768 20.8336 12.5598 20.8336C11.0182 20.8362 9.50873 20.3934 8.21278 19.5586C8.43328 19.5856 8.65978 19.5961 8.88928 19.5961C10.2183 19.5961 11.4408 19.1446 12.4113 18.3826C11.8199 18.371 11.2468 18.1751 10.7719 17.8224C10.2971 17.4696 9.94415 16.9775 9.76228 16.4146C10.187 16.4954 10.6246 16.4784 11.0418 16.3651C10.3999 16.2353 9.82258 15.8875 9.40784 15.3806C8.99311 14.8737 8.76644 14.239 8.76628 13.5841V13.5496C9.14878 13.7611 9.58678 13.8901 10.0518 13.9051C9.44998 13.5045 9.02396 12.8891 8.86085 12.1848C8.69774 11.4805 8.80986 10.7405 9.17428 10.1161C9.88671 10.9921 10.7752 11.7087 11.7821 12.2196C12.7891 12.7304 13.8921 13.0241 15.0198 13.0816C14.8764 12.4731 14.9381 11.8342 15.1953 11.2644C15.4525 10.6945 15.8907 10.2256 16.4419 9.93049C16.9931 9.6354 17.6263 9.53068 18.2431 9.63261C18.86 9.73453 19.4258 10.0374 19.8528 10.4941C20.4875 10.3685 21.0962 10.1357 21.6528 9.8056C21.4412 10.4628 20.9983 11.0209 20.4063 11.3761C20.9686 11.3084 21.5176 11.1572 22.0353 10.9276C21.655 11.4974 21.176 11.9948 20.6208 12.3961Z" fill="#056839"/>
</svg>
