<svg width="30" height="30" viewBox="0 0 30 30" fill="none" xmlns="http://www.w3.org/2000/svg">
<path d="M17.4764 14.7496L14.1074 13.1776C13.8134 13.0411 13.5719 13.1941 13.5719 13.5196V16.4806C13.5719 16.8061 13.8134 16.9591 14.1074 16.8226L17.4749 15.2506C17.7704 15.1126 17.7704 14.8876 17.4764 14.7496ZM15.0719 0.600098C7.11888 0.600098 0.671875 7.0471 0.671875 15.0001C0.671875 22.9531 7.11888 29.4001 15.0719 29.4001C23.0249 29.4001 29.4719 22.9531 29.4719 15.0001C29.4719 7.0471 23.0249 0.600098 15.0719 0.600098ZM15.0719 20.8501C7.70088 20.8501 7.57187 20.1856 7.57187 15.0001C7.57187 9.8146 7.70088 9.1501 15.0719 9.1501C22.4429 9.1501 22.5719 9.8146 22.5719 15.0001C22.5719 20.1856 22.4429 20.8501 15.0719 20.8501Z" fill="#056839"/>
</svg>
